<svg width="24" height="25" viewBox="0 0 24 25" fill="none" xmlns="http://www.w3.org/2000/svg">
<path d="M1 12.5567C1 18.9394 5.94225 24.1133 12.0392 24.1133C18.1361 24.1133 23.0784 18.9394 23.0784 12.5567C23.0784 6.17392 18.1361 1 12.0392 1C5.94225 1 1 6.17392 1 12.5567Z" stroke="#FEFEFF" stroke-width="1.10392" stroke-linecap="round" stroke-linejoin="round"/>
<path d="M13.1425 1.05798C13.1425 1.05798 16.4542 5.62286 16.4542 12.5569C16.4542 19.4909 13.1425 24.0557 13.1425 24.0557M10.9346 24.0557C10.9346 24.0557 7.62287 19.4909 7.62287 12.5569C7.62287 5.62286 10.9346 1.05798 10.9346 1.05798M1.69482 16.6017H22.3823M1.69482 8.51203H22.3823" stroke="#FEFEFF" stroke-width="1.10392" stroke-linecap="round" stroke-linejoin="round"/>
</svg>
