<svg width="307" height="35" viewBox="0 0 307 35" fill="none" xmlns="http://www.w3.org/2000/svg">
<g clip-path="url(#clip0_169_100)">
<path d="M40.809 0H27.6445L30.8948 6.7974H40.5978C42.5077 6.7974 44.3395 7.54547 45.6901 8.87705C47.0406 10.2086 47.7994 12.0146 47.7994 13.8978C47.7994 15.7809 47.0406 17.5869 45.6901 18.9185C44.3395 20.25 42.5077 20.9981 40.5978 20.9981H33.9243L23.9477 0H16.5541L0 34.8154H7.28801L20.2509 7.55004L26.6411 20.9792H17.5575L14.3168 27.8002H40.809C42.6601 27.8002 44.4931 27.4408 46.2033 26.7423C47.9135 26.0439 49.4674 25.0202 50.7763 23.7297C52.0853 22.4392 53.1236 20.9071 53.8319 19.2209C54.5403 17.5348 54.9049 15.7276 54.9049 13.9025C54.9056 12.077 54.5414 10.2693 53.8333 8.58259C53.1252 6.89589 52.087 5.36326 50.778 4.07223C49.469 2.7812 47.9149 1.75708 46.2044 1.05836C44.4939 0.359633 42.6605 -1.05885e-07 40.809 0Z" fill="#FDFDFC"/>
<path d="M40.809 0H27.6445L30.8948 6.7974H40.5978C42.5077 6.7974 44.3395 7.54547 45.6901 8.87705C47.0406 10.2086 47.7994 12.0146 47.7994 13.8978C47.7994 15.7809 47.0406 17.5869 45.6901 18.9185C44.3395 20.25 42.5077 20.9981 40.5978 20.9981H33.9243L23.9477 0H16.5541L0 34.8154H7.28801L20.2509 7.55004L26.6411 20.9792H17.5575L14.3168 27.8002H40.809C42.6601 27.8002 44.4931 27.4408 46.2033 26.7423C47.9135 26.0439 49.4674 25.0202 50.7763 23.7297C52.0853 22.4392 53.1236 20.9071 53.8319 19.2209C54.5403 17.5348 54.9049 15.7276 54.9049 13.9025C54.9056 12.077 54.5414 10.2693 53.8333 8.58259C53.1252 6.89589 52.087 5.36326 50.778 4.07223C49.469 2.7812 47.9149 1.75708 46.2044 1.05836C44.4939 0.359633 42.6605 -1.05885e-07 40.809 0Z" fill="url(#paint0_angular_169_100)"/>
<path d="M31.6055 31.426L33.2186 34.8153H40.5018L38.8935 31.426H31.6055Z" fill="#FDFDFC"/>
<path d="M31.6055 31.426L33.2186 34.8153H40.5018L38.8935 31.426H31.6055Z" fill="url(#paint1_angular_169_100)"/>
<path d="M23.9477 0L7.28801 34.8154H0L16.5541 0H23.9477Z" fill="#FDFDFC"/>
<path d="M23.9477 0L7.28801 34.8154H0L16.5541 0H23.9477Z" fill="url(#paint2_angular_169_100)"/>
<path d="M26.6369 20.9792L29.8824 27.8003H14.3174L17.5581 20.9792H26.6369Z" fill="#FDFDFC"/>
<path d="M26.6369 20.9792L29.8824 27.8003H14.3174L17.5581 20.9792H26.6369Z" fill="url(#paint3_angular_169_100)"/>
<path d="M23.9478 0L20.251 7.55004L29.8819 27.8002H37.1699L23.9478 0Z" fill="#FDFDFC"/>
<path d="M23.9478 0L20.251 7.55004L29.8819 27.8002H37.1699L23.9478 0Z" fill="url(#paint4_angular_169_100)"/>
<path d="M78.0555 17.6893H67.9733L65.8272 22.2004H61.9863V21.727L72.1886 0.265015H73.8882L84.052 21.7317V22.2051H80.2352L78.0555 17.6893ZM73.0384 5.92636L69.1591 14.6361H76.8888L73.0384 5.92636Z" fill="#2C2C2C"/>
<path d="M86.8994 0.473389H94.8836C98.1803 0.473389 100.8 1.51793 102.743 3.60701C104.685 5.69676 105.731 8.44663 105.662 11.2801C105.736 14.1245 104.705 16.8893 102.781 19.01C100.861 21.137 98.2299 22.2005 94.8884 22.2005H86.8994V0.473389ZM90.5626 18.9343H94.8212C95.8117 18.982 96.8004 18.8098 97.7145 18.4305C98.6285 18.0512 99.4445 17.4744 100.102 16.7427C101.402 15.2406 102.087 13.3149 102.023 11.3417C102.086 9.37 101.401 7.44598 100.102 5.94539C99.4531 5.21808 98.647 4.64331 97.7431 4.26324C96.8393 3.88318 95.8605 3.70747 94.8788 3.74902H90.5866L90.5626 18.9343Z" fill="#2C2C2C"/>
<path d="M122.048 14.0491L127.665 21.6701V22.2003H123.94L118.452 14.6266H113.589V22.2003H109.896V0.421143H119.018C121.352 0.421143 123.213 1.09962 124.602 2.45658C125.283 3.11314 125.819 3.90082 126.177 4.77056C126.536 5.6403 126.709 6.57349 126.686 7.51203C126.701 8.94256 126.263 10.3421 125.431 11.5143C124.599 12.6866 123.416 13.573 122.048 14.0491ZM113.526 11.6208H118.985C119.533 11.64 120.079 11.5477 120.59 11.3496C121.1 11.1516 121.563 10.8521 121.951 10.4697C122.339 10.0874 122.643 9.6304 122.844 9.12724C123.044 8.62409 123.138 8.08554 123.119 7.54516C123.132 7.01818 123.035 6.49411 122.835 6.00551C122.634 5.51691 122.334 5.07424 121.952 4.70502C121.56 4.32867 121.096 4.03409 120.586 3.83889C120.076 3.64369 119.532 3.55188 118.985 3.56896H113.526V11.6208Z" fill="#2C2C2C"/>
<path d="M139.37 0.473389H147.354C150.657 0.473389 153.282 1.52582 155.228 3.63068C157.17 5.72043 158.216 8.47029 158.147 11.3038C158.221 14.1482 157.19 16.913 155.266 19.0337C153.327 21.1607 150.696 22.2241 147.373 22.2241H139.37V0.473389ZM143.033 18.9343H147.292C148.278 18.9784 149.262 18.8045 150.172 18.4253C151.082 18.0461 151.894 17.4712 152.549 16.7427C153.848 15.2406 154.533 13.3149 154.469 11.3417C154.532 9.36999 153.848 7.44598 152.549 5.94539C151.899 5.21861 151.093 4.6442 150.189 4.26419C149.286 3.88417 148.307 3.70815 147.325 3.74902H143.033V18.9343Z" fill="#2175C9"/>
<path d="M139.37 0.473389H147.354C150.657 0.473389 153.282 1.52582 155.228 3.63068C157.17 5.72043 158.216 8.47029 158.147 11.3038C158.221 14.1482 157.19 16.913 155.266 19.0337C153.327 21.1607 150.696 22.2241 147.373 22.2241H139.37V0.473389ZM143.033 18.9343H147.292C148.278 18.9784 149.262 18.8045 150.172 18.4253C151.082 18.0461 151.894 17.4712 152.549 16.7427C153.848 15.2406 154.533 13.3149 154.469 11.3417C154.532 9.36999 153.848 7.44598 152.549 5.94539C151.899 5.21861 151.093 4.6442 150.189 4.26419C149.286 3.88417 148.307 3.70815 147.325 3.74902H143.033V18.9343Z" fill="url(#paint5_angular_169_100)"/>
<path d="M168.373 10.2812H168.517L171.264 5.11684L174.144 0.421143H178.057V0.946569L170.265 13.3627V22.2003H166.597V13.3627L158.81 0.946569V0.421143H162.756L165.723 5.27305L168.373 10.2812Z" fill="#2175C9"/>
<path d="M168.373 10.2812H168.517L171.264 5.11684L174.144 0.421143H178.057V0.946569L170.265 13.3627V22.2003H166.597V13.3627L158.81 0.946569V0.421143H162.756L165.723 5.27305L168.373 10.2812Z" fill="url(#paint6_angular_169_100)"/>
<path d="M198.004 22.2477L184.499 7.38906L184.749 14.2953V22.2004H181.119V0.35498H182.439L195.849 15.029L195.594 8.37364V0.42125H199.258V22.2477H198.004Z" fill="#2175C9"/>
<path d="M198.004 22.2477L184.499 7.38906L184.749 14.2953V22.2004H181.119V0.35498H182.439L195.849 15.029L195.594 8.37364V0.42125H199.258V22.2477H198.004Z" fill="url(#paint7_angular_169_100)"/>
<path d="M218.14 17.6893H208.058L205.912 22.2004H202.071V21.727L212.269 0.265015H213.973L224.132 21.7317V22.2051H220.315L218.14 17.6893ZM213.119 5.92636L209.239 14.6361H216.969L213.119 5.92636Z" fill="#2175C9"/>
<path d="M218.14 17.6893H208.058L205.912 22.2004H202.071V21.727L212.269 0.265015H213.973L224.132 21.7317V22.2051H220.315L218.14 17.6893ZM213.119 5.92636L209.239 14.6361H216.969L213.119 5.92636Z" fill="url(#paint8_angular_169_100)"/>
<path d="M237.292 11.6209L246.255 0.35498H247.614V22.2004H243.922V8.57245L237.546 16.6195H237.066L230.657 8.57245V22.2004H226.965V0.35498H228.324L237.292 11.6209Z" fill="#2175C9"/>
<path d="M237.292 11.6209L246.255 0.35498H247.614V22.2004H243.922V8.57245L237.546 16.6195H237.066L230.657 8.57245V22.2004H226.965V0.35498H228.324L237.292 11.6209Z" fill="url(#paint9_angular_169_100)"/>
<path d="M258.777 19.2749H262.277V22.2003H251.623V19.2749H255.123V3.31335H251.906V0.421143H261.989V3.31335H258.777V19.2749Z" fill="#2175C9"/>
<path d="M258.777 19.2749H262.277V22.2003H251.623V19.2749H255.123V3.31335H251.906V0.421143H261.989V3.31335H258.777V19.2749Z" fill="url(#paint10_angular_169_100)"/>
<path d="M264.653 11.3605C264.653 7.95549 265.743 5.24316 267.923 3.2235C270.063 1.20618 272.928 0.108177 275.888 0.17035C277.339 0.163212 278.779 0.426601 280.132 0.946655C281.5 1.48735 282.725 2.32927 283.714 3.40811C284.778 4.54548 285.518 5.9401 285.86 7.45058H282.326C281.257 4.83765 279.101 3.51067 275.859 3.46965C274.844 3.4315 273.832 3.60917 272.893 3.9906C271.953 4.37202 271.108 4.94827 270.415 5.68022C269.035 7.14132 268.345 9.03474 268.345 11.3605C268.288 13.4052 269.041 15.3916 270.443 16.8988C271.13 17.6337 271.969 18.2141 272.904 18.6004C273.838 18.9868 274.846 19.1701 275.859 19.1378C277.306 19.1604 278.728 18.7602 279.945 17.9875C281.126 17.2255 282.001 16.0827 282.422 14.7545H285.989C285.793 15.8956 285.37 16.9873 284.744 17.9669C284.119 18.9466 283.304 19.7948 282.345 20.4632C280.161 21.897 277.555 22.5717 274.938 22.3805C272.322 22.1893 269.844 21.1431 267.899 19.4076C265.738 17.4132 264.657 14.7308 264.653 11.3605Z" fill="#2175C9"/>
<path d="M264.653 11.3605C264.653 7.95549 265.743 5.24316 267.923 3.2235C270.063 1.20618 272.928 0.108177 275.888 0.17035C277.339 0.163212 278.779 0.426601 280.132 0.946655C281.5 1.48735 282.725 2.32927 283.714 3.40811C284.778 4.54548 285.518 5.9401 285.86 7.45058H282.326C281.257 4.83765 279.101 3.51067 275.859 3.46965C274.844 3.4315 273.832 3.60917 272.893 3.9906C271.953 4.37202 271.108 4.94827 270.415 5.68022C269.035 7.14132 268.345 9.03474 268.345 11.3605C268.288 13.4052 269.041 15.3916 270.443 16.8988C271.13 17.6337 271.969 18.2141 272.904 18.6004C273.838 18.9868 274.846 19.1701 275.859 19.1378C277.306 19.1604 278.728 18.7602 279.945 17.9875C281.126 17.2255 282.001 16.0827 282.422 14.7545H285.989C285.793 15.8956 285.37 16.9873 284.744 17.9669C284.119 18.9466 283.304 19.7948 282.345 20.4632C280.161 21.897 277.555 22.5717 274.938 22.3805C272.322 22.1893 269.844 21.1431 267.899 19.4076C265.738 17.4132 264.657 14.7308 264.653 11.3605Z" fill="url(#paint11_angular_169_100)"/>
<path d="M288.606 16.0089H292.206C292.233 16.7476 292.556 17.4456 293.104 17.9496C293.652 18.4739 294.323 18.8547 295.058 19.0573C295.84 19.2694 296.648 19.3745 297.459 19.3697C298.711 19.4053 299.952 19.1371 301.074 18.5887C301.557 18.3469 301.957 17.9699 302.223 17.5051C302.489 17.0403 302.611 16.5083 302.572 15.9758C302.584 15.479 302.46 14.9884 302.212 14.5557C302.006 14.1889 301.726 13.8669 301.391 13.609C300.98 13.3451 300.525 13.1559 300.047 13.0504C299.573 12.919 299.092 12.8147 298.606 12.738C298.237 12.6859 297.708 12.6291 297.012 12.5676C291.661 12.1226 288.985 10.1424 288.985 6.62696C288.94 5.67987 289.136 4.73669 289.555 3.88343C289.974 3.03016 290.604 2.29395 291.385 1.74192C293.112 0.552284 295.181 -0.0584298 297.286 -3.76338e-05C299.345 -0.0638827 301.376 0.488993 303.11 1.58571C304.694 2.64603 305.509 4.22388 305.553 6.31927H302.082C302.069 5.97495 301.986 5.63667 301.84 5.3239C301.693 5.01114 301.485 4.73006 301.228 4.49685C300.728 4.02303 300.116 3.68113 299.446 3.5028C298.73 3.31778 297.993 3.22862 297.252 3.23772C296.129 3.21965 295.019 3.4922 294.036 4.02823C293.581 4.26244 293.204 4.61997 292.949 5.05863C292.694 5.49728 292.571 5.99876 292.595 6.50388C292.585 6.93948 292.694 7.36972 292.912 7.74881C293.087 8.06014 293.322 8.33502 293.604 8.55825C293.968 8.792 294.368 8.96474 294.789 9.06948C295.22 9.20003 295.658 9.30904 296.1 9.39609C296.436 9.45763 296.95 9.53337 297.646 9.61384C298.699 9.74007 299.582 9.86472 300.296 9.98779C301.077 10.1287 301.842 10.3427 302.582 10.6268C303.295 10.8693 303.955 11.2437 304.526 11.7297C305.045 12.2188 305.458 12.8065 305.741 13.4575C306.081 14.2603 306.244 15.125 306.221 15.9947C306.241 17.0564 305.972 18.104 305.443 19.0289C304.967 19.8851 304.272 20.6033 303.427 21.1117C302.565 21.6206 301.634 22.0033 300.661 22.2477C299.639 22.5019 298.589 22.6276 297.536 22.6217C296.111 22.6643 294.69 22.4477 293.344 21.9826C292.042 21.5448 290.882 20.7718 289.984 19.7437C289.083 18.7029 288.594 17.3768 288.606 16.0089Z" fill="#2175C9"/>
<path d="M288.606 16.0089H292.206C292.233 16.7476 292.556 17.4456 293.104 17.9496C293.652 18.4739 294.323 18.8547 295.058 19.0573C295.84 19.2694 296.648 19.3745 297.459 19.3697C298.711 19.4053 299.952 19.1371 301.074 18.5887C301.557 18.3469 301.957 17.9699 302.223 17.5051C302.489 17.0403 302.611 16.5083 302.572 15.9758C302.584 15.479 302.46 14.9884 302.212 14.5557C302.006 14.1889 301.726 13.8669 301.391 13.609C300.98 13.3451 300.525 13.1559 300.047 13.0504C299.573 12.919 299.092 12.8147 298.606 12.738C298.237 12.6859 297.708 12.6291 297.012 12.5676C291.661 12.1226 288.985 10.1424 288.985 6.62696C288.94 5.67987 289.136 4.73669 289.555 3.88343C289.974 3.03016 290.604 2.29395 291.385 1.74192C293.112 0.552284 295.181 -0.0584298 297.286 -3.76338e-05C299.345 -0.0638827 301.376 0.488993 303.11 1.58571C304.694 2.64603 305.509 4.22388 305.553 6.31927H302.082C302.069 5.97495 301.986 5.63667 301.84 5.3239C301.693 5.01114 301.485 4.73006 301.228 4.49685C300.728 4.02303 300.116 3.68113 299.446 3.5028C298.73 3.31778 297.993 3.22862 297.252 3.23772C296.129 3.21965 295.019 3.4922 294.036 4.02823C293.581 4.26244 293.204 4.61997 292.949 5.05863C292.694 5.49728 292.571 5.99876 292.595 6.50388C292.585 6.93948 292.694 7.36972 292.912 7.74881C293.087 8.06014 293.322 8.33502 293.604 8.55825C293.968 8.792 294.368 8.96474 294.789 9.06948C295.22 9.20003 295.658 9.30904 296.1 9.39609C296.436 9.45763 296.95 9.53337 297.646 9.61384C298.699 9.74007 299.582 9.86472 300.296 9.98779C301.077 10.1287 301.842 10.3427 302.582 10.6268C303.295 10.8693 303.955 11.2437 304.526 11.7297C305.045 12.2188 305.458 12.8065 305.741 13.4575C306.081 14.2603 306.244 15.125 306.221 15.9947C306.241 17.0564 305.972 18.104 305.443 19.0289C304.967 19.8851 304.272 20.6033 303.427 21.1117C302.565 21.6206 301.634 22.0033 300.661 22.2477C299.639 22.5019 298.589 22.6276 297.536 22.6217C296.111 22.6643 294.69 22.4477 293.344 21.9826C292.042 21.5448 290.882 20.7718 289.984 19.7437C289.083 18.7029 288.594 17.3768 288.606 16.0089Z" fill="url(#paint12_angular_169_100)"/>
<path d="M62.8604 29.3196H63.4653V34.9525H62.8604V29.3196Z" fill="#111111"/>
<path d="M71.9775 29.3196V34.9525H71.4974L67.8246 30.3799V34.9525H67.2148V29.3196H67.6949L71.3774 33.8875V29.3196H71.9775Z" fill="#111111"/>
<path d="M80.4904 29.3196V34.9525H80.0102L76.3374 30.3799V34.9525H75.7373V29.3196H76.2174L79.8998 33.8875V29.3196H80.4904Z" fill="#111111"/>
<path d="M83.7212 32.1361C83.6972 31.5467 83.8525 30.9637 84.1672 30.462C84.4818 29.9603 84.9413 29.5628 85.4868 29.3205C86.0323 29.0781 86.6388 29.0021 87.2284 29.1022C87.818 29.2023 88.3638 29.4738 88.7957 29.882C89.2277 30.2901 89.526 30.8163 89.6524 31.3928C89.7787 31.9694 89.7274 32.57 89.505 33.1176C89.2826 33.6652 88.8992 34.1348 88.4042 34.466C87.9091 34.7971 87.3249 34.9749 86.7266 34.9763C86.338 34.9929 85.9499 34.9317 85.5859 34.7965C85.2218 34.6612 84.8894 34.4546 84.6085 34.1892C84.3277 33.9238 84.1042 33.6051 83.9517 33.2522C83.7992 32.8994 83.7208 32.5197 83.7212 32.1361ZM89.1175 32.1361C89.1242 31.6667 88.9891 31.2059 88.7294 30.8123C88.4697 30.4188 88.0972 30.1103 87.6592 29.926C87.2212 29.7418 86.7375 29.6902 86.2696 29.7777C85.8018 29.8653 85.3709 30.088 85.0318 30.4177C84.6927 30.7473 84.4607 31.169 84.3654 31.6289C84.27 32.0889 84.3155 32.5665 84.4962 33.0009C84.6768 33.4353 84.9845 33.8069 85.3799 34.0685C85.7754 34.3301 86.2408 34.4697 86.717 34.4698C87.0326 34.4815 87.3473 34.4294 87.6417 34.3167C87.9361 34.204 88.2039 34.0331 88.4288 33.8145C88.6537 33.5959 88.8308 33.3342 88.9493 33.0455C89.0677 32.7569 89.125 32.4474 89.1175 32.1361Z" fill="#111111"/>
<path d="M97.5335 29.3196L95.0033 34.9525H94.4032L91.873 29.3196H92.526L94.7153 34.2094L96.919 29.3196H97.5335Z" fill="#111111"/>
<path d="M103.646 33.4473H100.463L99.7764 34.9525H99.1475L101.783 29.3196H102.379L104.99 34.9525H104.357L103.646 33.4473ZM103.425 32.9739L102.052 29.9491L100.684 32.9739H103.425Z" fill="#111111"/>
<path d="M108.614 29.8213H106.607V29.3196H111.226V29.8213H109.219V34.9525H108.614V29.8213Z" fill="#111111"/>
<path d="M114.068 29.3196H114.673V34.9525H114.068V29.3196Z" fill="#111111"/>
<path d="M117.905 32.1361C117.881 31.5465 118.036 30.9634 118.351 30.4615C118.666 29.9597 119.126 29.5621 119.671 29.32C120.217 29.0778 120.824 29.0021 121.414 29.1025C122.004 29.2029 122.549 29.475 122.981 29.8836C123.413 30.2922 123.711 30.8188 123.837 31.3957C123.962 31.9726 123.91 32.5734 123.687 33.1209C123.464 33.6684 123.08 34.1377 122.584 34.4683C122.089 34.7989 121.504 34.9758 120.905 34.9763C120.517 34.9923 120.13 34.9306 119.766 34.795C119.403 34.6595 119.071 34.4528 118.79 34.1875C118.51 33.9221 118.287 33.6036 118.135 33.2511C117.983 32.8985 117.904 32.5193 117.905 32.1361ZM123.296 32.1361C123.303 31.6667 123.168 31.2059 122.908 30.8123C122.649 30.4188 122.276 30.1103 121.838 29.926C121.4 29.7418 120.916 29.6902 120.448 29.7777C119.981 29.8653 119.55 30.088 119.211 30.4177C118.872 30.7473 118.64 31.169 118.544 31.6289C118.449 32.0889 118.494 32.5665 118.675 33.0009C118.856 33.4353 119.163 33.8069 119.559 34.0685C119.954 34.3301 120.42 34.4697 120.896 34.4698C121.211 34.4815 121.526 34.4294 121.82 34.3167C122.115 34.204 122.383 34.0331 122.608 33.8145C122.832 33.5959 123.01 33.3342 123.128 33.0456C123.246 32.7569 123.304 32.4474 123.296 32.1361Z" fill="#111111"/>
<path d="M131.91 29.3196V34.9525H131.43L127.757 30.3799V34.9525H127.133V29.3196H127.613L131.295 33.8875V29.3196H131.91Z" fill="#111111"/>
<path d="M139.663 29.3196H140.268V34.9525H139.663V29.3196Z" fill="#111111"/>
<path d="M148.78 29.3196V34.9525H148.3L144.627 30.3799V34.9525H144.022V29.3196H144.503L148.185 33.8875V29.3196H148.78Z" fill="#111111"/>
<path d="M151.973 34.2662L152.208 33.7928C152.731 34.255 153.412 34.5052 154.114 34.4934C155.185 34.4934 155.65 34.0485 155.65 33.4946C155.65 31.9515 152.131 32.8982 152.131 30.8154C152.131 29.9871 152.784 29.2723 154.239 29.2723C154.863 29.2585 155.478 29.4228 156.01 29.7456L155.804 30.219C155.338 29.9187 154.795 29.7546 154.239 29.7456C153.192 29.7456 152.731 30.219 152.731 30.7681C152.731 32.3112 156.246 31.3787 156.246 33.4284C156.246 34.2567 155.578 34.9668 154.114 34.9668C153.336 35.0084 152.571 34.7581 151.973 34.2662Z" fill="#111111"/>
<path d="M163.885 31.2414C163.885 32.439 163.006 33.1632 161.551 33.1632H160.02V34.9431H159.396V29.3196H161.532C163.006 29.3196 163.885 30.0438 163.885 31.2414ZM163.284 31.2414C163.284 30.3373 162.679 29.8213 161.537 29.8213H160.02V32.6615H161.537C162.679 32.6615 163.284 32.1361 163.284 31.2414Z" fill="#111111"/>
<path d="M167.077 29.3196H167.682V34.9525H167.077V29.3196Z" fill="#111111"/>
<path d="M175.311 34.9525L174.005 33.1348C173.854 33.1448 173.701 33.1448 173.549 33.1348H172.018V34.9241H171.398V29.3196H173.535C174.975 29.3196 175.868 30.0438 175.868 31.2509C175.889 31.6487 175.77 32.0414 175.533 32.3636C175.295 32.6857 174.952 32.9178 174.562 33.0212L175.959 34.9525H175.311ZM175.282 31.2414C175.282 30.3373 174.678 29.8213 173.535 29.8213H172.018V32.6615H173.535C174.678 32.6615 175.282 32.1361 175.282 31.2414Z" fill="#111111"/>
<path d="M183.228 34.4366V34.9525H179.19V29.3196H183.108V29.8213H179.795V31.8236H182.748V32.3301H179.795V34.4224L183.228 34.4366Z" fill="#111111"/>
<path d="M186.526 29.3196H188.855C190.679 29.3196 191.913 30.4793 191.913 32.1597C191.913 33.8401 190.679 34.9999 188.855 34.9999H186.526V29.3196ZM188.821 34.4366C190.338 34.4366 191.318 33.4899 191.318 32.1361C191.318 30.7823 190.358 29.8355 188.821 29.8355H187.131V34.4366H188.821Z" fill="#111111"/>
<path d="M203.935 33.4473C203.935 34.394 203.22 34.9525 201.789 34.9525H199.163V29.3196H201.645C202.918 29.3196 203.652 29.8497 203.652 30.7681C203.663 31.0449 203.584 31.3179 203.427 31.5477C203.27 31.7774 203.043 31.952 202.778 32.0461C203.113 32.0962 203.417 32.2674 203.631 32.5265C203.845 32.7855 203.953 33.1137 203.935 33.4473ZM199.768 29.8213V31.8662H201.588C202.5 31.8662 203.028 31.5207 203.028 30.8438C203.028 30.1669 202.495 29.8213 201.588 29.8213H199.768ZM203.33 33.4141C203.33 32.6804 202.788 32.3585 201.78 32.3585H199.768V34.4602H201.78C202.788 34.4602 203.33 34.1384 203.33 33.3999V33.4141Z" fill="#111111"/>
<path d="M209.029 33.0023V34.9525H208.434V33.0023L206.148 29.3196H206.792L208.751 32.4816L210.709 29.3196H211.314L209.029 33.0023Z" fill="#111111"/>
<path d="M218.75 29.8213V32.0461H221.703V32.5621H218.75V34.9289H218.146V29.3196H222.063V29.8213H218.75Z" fill="#111111"/>
<path d="M228.502 33.4473H225.319L224.632 34.9525H224.008L226.61 29.3196H227.205L229.817 34.9525H229.179L228.502 33.4473ZM228.281 32.9739L226.912 29.9491L225.539 32.9739H228.281Z" fill="#111111"/>
<path d="M238.585 29.3196V34.9525H238.004V30.4462L235.761 34.233H235.473L233.231 30.4698V34.9525H232.65V29.3196H233.13L235.608 33.4946L238.066 29.3196H238.585Z" fill="#111111"/>
<path d="M242.319 29.3196H242.934V34.9525H242.329L242.319 29.3196Z" fill="#111111"/>
<path d="M246.664 29.3196H247.254V34.4366H250.452V34.9525H246.649L246.664 29.3196Z" fill="#111111"/>
<path d="M254.701 33.0023V34.9525H254.106V33.0023L251.82 29.3196H252.464L254.422 32.4816L256.377 29.3196H256.981L254.701 33.0023Z" fill="#111111"/>
<path d="M268.572 29.3196L266.041 34.9525H265.441L262.911 29.3196H263.578L265.768 34.2094L267.971 29.3196H268.572Z" fill="#111111"/>
<path d="M274.683 33.4473H271.5L270.814 34.9525H270.185L272.796 29.3196H273.392L276.003 34.9525H275.37L274.683 33.4473ZM274.462 32.9739L273.089 29.9491L271.74 32.9644L274.462 32.9739Z" fill="#111111"/>
<path d="M278.832 29.3196H279.422V34.4366H282.625V34.9525H278.822L278.832 29.3196Z" fill="#111111"/>
<path d="M285.361 32.5431V29.3196H285.961V32.5195C285.961 33.8591 286.6 34.4697 287.709 34.4697C288.818 34.4697 289.466 33.8591 289.466 32.5195V29.3196H290.052V32.5431C290.052 34.162 289.169 34.9999 287.709 34.9999C286.25 34.9999 285.361 34.162 285.361 32.5431Z" fill="#111111"/>
<path d="M297.787 34.4366V34.9525H293.749V29.3196H297.667V29.8213H294.354V31.8236H297.307V32.3301H294.354V34.4224L297.787 34.4366Z" fill="#111111"/>
<path d="M300.547 34.2662L300.787 33.7929C301.306 34.2443 301.977 34.489 302.669 34.4793C303.74 34.4793 304.205 34.0343 304.205 33.4805C304.205 31.9373 300.686 32.884 300.686 30.8013C300.686 29.9729 301.339 29.2581 302.794 29.2581C303.418 29.2443 304.033 29.4087 304.565 29.7315L304.359 30.2048C303.893 29.9045 303.35 29.7404 302.794 29.7315C301.747 29.7315 301.281 30.2048 301.281 30.7539C301.281 32.2971 304.801 31.3646 304.801 33.4142C304.801 34.2426 304.133 34.9526 302.669 34.9526C301.9 34.9916 301.143 34.7469 300.547 34.2662Z" fill="#111111"/>
</g>
<defs>
<radialGradient id="paint0_angular_169_100" cx="0" cy="0" r="1" gradientUnits="userSpaceOnUse" gradientTransform="translate(17.5337 8.99724) rotate(58.1978) scale(10.9893 12.0218)">
<stop offset="0.0416667" stop-color="#0085FF"/>
<stop offset="0.114535" stop-color="#74BCF7"/>
<stop offset="0.223958" stop-color="#5BB6FF"/>
<stop offset="0.34375" stop-color="#74C1FF"/>
<stop offset="0.520833" stop-color="#238CEC"/>
<stop offset="0.635417" stop-color="#60BCFF"/>
<stop offset="0.730907" stop-color="#3195EA"/>
<stop offset="0.802083" stop-color="#218EF2"/>
<stop offset="0.891089" stop-color="#96CDFF"/>
<stop offset="1" stop-color="#0A91FF"/>
</radialGradient>
<radialGradient id="paint1_angular_169_100" cx="0" cy="0" r="1" gradientUnits="userSpaceOnUse" gradientTransform="translate(34.4465 32.3019) rotate(44.0952) scale(1.30659 1.59491)">
<stop offset="0.0416667" stop-color="#0085FF"/>
<stop offset="0.114535" stop-color="#74BCF7"/>
<stop offset="0.223958" stop-color="#5BB6FF"/>
<stop offset="0.34375" stop-color="#74C1FF"/>
<stop offset="0.520833" stop-color="#238CEC"/>
<stop offset="0.635417" stop-color="#60BCFF"/>
<stop offset="0.730907" stop-color="#3195EA"/>
<stop offset="0.802083" stop-color="#218EF2"/>
<stop offset="0.891089" stop-color="#96CDFF"/>
<stop offset="1" stop-color="#0A91FF"/>
</radialGradient>
<radialGradient id="paint2_angular_169_100" cx="0" cy="0" r="1" gradientUnits="userSpaceOnUse" gradientTransform="translate(7.64763 8.99724) rotate(74.866) scale(9.67508 5.9558)">
<stop offset="0.0416667" stop-color="#0085FF"/>
<stop offset="0.114535" stop-color="#74BCF7"/>
<stop offset="0.223958" stop-color="#5BB6FF"/>
<stop offset="0.34375" stop-color="#74C1FF"/>
<stop offset="0.520833" stop-color="#238CEC"/>
<stop offset="0.635417" stop-color="#60BCFF"/>
<stop offset="0.730907" stop-color="#3195EA"/>
<stop offset="0.802083" stop-color="#218EF2"/>
<stop offset="0.891089" stop-color="#96CDFF"/>
<stop offset="1" stop-color="#0A91FF"/>
</radialGradient>
<radialGradient id="paint3_angular_169_100" cx="0" cy="0" r="1" gradientUnits="userSpaceOnUse" gradientTransform="translate(19.288 22.742) rotate(48.1005) scale(2.45837 2.98479)">
<stop offset="0.0416667" stop-color="#0085FF"/>
<stop offset="0.114535" stop-color="#74BCF7"/>
<stop offset="0.223958" stop-color="#5BB6FF"/>
<stop offset="0.34375" stop-color="#74C1FF"/>
<stop offset="0.520833" stop-color="#238CEC"/>
<stop offset="0.635417" stop-color="#60BCFF"/>
<stop offset="0.730907" stop-color="#3195EA"/>
<stop offset="0.802083" stop-color="#218EF2"/>
<stop offset="0.891089" stop-color="#96CDFF"/>
<stop offset="1" stop-color="#0A91FF"/>
</radialGradient>
<radialGradient id="paint4_angular_169_100" cx="0" cy="0" r="1" gradientUnits="userSpaceOnUse" gradientTransform="translate(25.654 7.18433) rotate(76.5425) scale(7.6682 4.23924)">
<stop offset="0.0416667" stop-color="#0085FF"/>
<stop offset="0.114535" stop-color="#74BCF7"/>
<stop offset="0.223958" stop-color="#5BB6FF"/>
<stop offset="0.34375" stop-color="#74C1FF"/>
<stop offset="0.520833" stop-color="#238CEC"/>
<stop offset="0.635417" stop-color="#60BCFF"/>
<stop offset="0.730907" stop-color="#3195EA"/>
<stop offset="0.802083" stop-color="#218EF2"/>
<stop offset="0.891089" stop-color="#96CDFF"/>
<stop offset="1" stop-color="#0A91FF"/>
</radialGradient>
<radialGradient id="paint5_angular_169_100" cx="0" cy="0" r="1" gradientUnits="userSpaceOnUse" gradientTransform="translate(145.368 6.09437) rotate(71.2475) scale(6.16192 4.58171)">
<stop offset="0.0416667" stop-color="#0085FF"/>
<stop offset="0.114535" stop-color="#74BCF7"/>
<stop offset="0.223958" stop-color="#5BB6FF"/>
<stop offset="0.34375" stop-color="#74C1FF"/>
<stop offset="0.520833" stop-color="#238CEC"/>
<stop offset="0.635417" stop-color="#60BCFF"/>
<stop offset="0.730907" stop-color="#3195EA"/>
<stop offset="0.802083" stop-color="#218EF2"/>
<stop offset="0.891089" stop-color="#96CDFF"/>
<stop offset="1" stop-color="#0A91FF"/>
</radialGradient>
<radialGradient id="paint6_angular_169_100" cx="0" cy="0" r="1" gradientUnits="userSpaceOnUse" gradientTransform="translate(164.956 6.04946) rotate(70.8383) scale(6.18512 4.68409)">
<stop offset="0.0416667" stop-color="#0085FF"/>
<stop offset="0.114535" stop-color="#74BCF7"/>
<stop offset="0.223958" stop-color="#5BB6FF"/>
<stop offset="0.34375" stop-color="#74C1FF"/>
<stop offset="0.520833" stop-color="#238CEC"/>
<stop offset="0.635417" stop-color="#60BCFF"/>
<stop offset="0.730907" stop-color="#3195EA"/>
<stop offset="0.802083" stop-color="#218EF2"/>
<stop offset="0.891089" stop-color="#96CDFF"/>
<stop offset="1" stop-color="#0A91FF"/>
</radialGradient>
<radialGradient id="paint7_angular_169_100" cx="0" cy="0" r="1" gradientUnits="userSpaceOnUse" gradientTransform="translate(186.912 6.01266) rotate(71.9561) scale(6.17669 4.44327)">
<stop offset="0.0416667" stop-color="#0085FF"/>
<stop offset="0.114535" stop-color="#74BCF7"/>
<stop offset="0.223958" stop-color="#5BB6FF"/>
<stop offset="0.34375" stop-color="#74C1FF"/>
<stop offset="0.520833" stop-color="#238CEC"/>
<stop offset="0.635417" stop-color="#60BCFF"/>
<stop offset="0.730907" stop-color="#3195EA"/>
<stop offset="0.802083" stop-color="#218EF2"/>
<stop offset="0.891089" stop-color="#96CDFF"/>
<stop offset="1" stop-color="#0A91FF"/>
</radialGradient>
<radialGradient id="paint8_angular_169_100" cx="0" cy="0" r="1" gradientUnits="userSpaceOnUse" gradientTransform="translate(209.116 5.93492) rotate(68.4282) scale(6.32891 5.28557)">
<stop offset="0.0416667" stop-color="#0085FF"/>
<stop offset="0.114535" stop-color="#74BCF7"/>
<stop offset="0.223958" stop-color="#5BB6FF"/>
<stop offset="0.34375" stop-color="#74C1FF"/>
<stop offset="0.520833" stop-color="#238CEC"/>
<stop offset="0.635417" stop-color="#60BCFF"/>
<stop offset="0.730907" stop-color="#3195EA"/>
<stop offset="0.802083" stop-color="#218EF2"/>
<stop offset="0.891089" stop-color="#96CDFF"/>
<stop offset="1" stop-color="#0A91FF"/>
</radialGradient>
<radialGradient id="paint9_angular_169_100" cx="0" cy="0" r="1" gradientUnits="userSpaceOnUse" gradientTransform="translate(233.559 6.00043) rotate(69.6115) scale(6.25188 4.98672)">
<stop offset="0.0416667" stop-color="#0085FF"/>
<stop offset="0.114535" stop-color="#74BCF7"/>
<stop offset="0.223958" stop-color="#5BB6FF"/>
<stop offset="0.34375" stop-color="#74C1FF"/>
<stop offset="0.520833" stop-color="#238CEC"/>
<stop offset="0.635417" stop-color="#60BCFF"/>
<stop offset="0.730907" stop-color="#3195EA"/>
<stop offset="0.802083" stop-color="#218EF2"/>
<stop offset="0.891089" stop-color="#96CDFF"/>
<stop offset="1" stop-color="#0A91FF"/>
</radialGradient>
<radialGradient id="paint10_angular_169_100" cx="0" cy="0" r="1" gradientUnits="userSpaceOnUse" gradientTransform="translate(255.025 6.04946) rotate(79.1129) scale(5.94952 2.69533)">
<stop offset="0.0416667" stop-color="#0085FF"/>
<stop offset="0.114535" stop-color="#74BCF7"/>
<stop offset="0.223958" stop-color="#5BB6FF"/>
<stop offset="0.34375" stop-color="#74C1FF"/>
<stop offset="0.520833" stop-color="#238CEC"/>
<stop offset="0.635417" stop-color="#60BCFF"/>
<stop offset="0.730907" stop-color="#3195EA"/>
<stop offset="0.802083" stop-color="#218EF2"/>
<stop offset="0.891089" stop-color="#96CDFF"/>
<stop offset="1" stop-color="#0A91FF"/>
</radialGradient>
<radialGradient id="paint11_angular_169_100" cx="0" cy="0" r="1" gradientUnits="userSpaceOnUse" gradientTransform="translate(271.467 5.91641) rotate(69.3367) scale(6.37752 5.14328)">
<stop offset="0.0416667" stop-color="#0085FF"/>
<stop offset="0.114535" stop-color="#74BCF7"/>
<stop offset="0.223958" stop-color="#5BB6FF"/>
<stop offset="0.34375" stop-color="#74C1FF"/>
<stop offset="0.520833" stop-color="#238CEC"/>
<stop offset="0.635417" stop-color="#60BCFF"/>
<stop offset="0.730907" stop-color="#3195EA"/>
<stop offset="0.802083" stop-color="#218EF2"/>
<stop offset="0.891089" stop-color="#96CDFF"/>
<stop offset="1" stop-color="#0A91FF"/>
</radialGradient>
<radialGradient id="paint12_angular_169_100" cx="0" cy="0" r="1" gradientUnits="userSpaceOnUse" gradientTransform="translate(294.232 5.8437) rotate(72.9818) scale(6.34923 4.34016)">
<stop offset="0.0416667" stop-color="#0085FF"/>
<stop offset="0.114535" stop-color="#74BCF7"/>
<stop offset="0.223958" stop-color="#5BB6FF"/>
<stop offset="0.34375" stop-color="#74C1FF"/>
<stop offset="0.520833" stop-color="#238CEC"/>
<stop offset="0.635417" stop-color="#60BCFF"/>
<stop offset="0.730907" stop-color="#3195EA"/>
<stop offset="0.802083" stop-color="#218EF2"/>
<stop offset="0.891089" stop-color="#96CDFF"/>
<stop offset="1" stop-color="#0A91FF"/>
</radialGradient>
<clipPath id="clip0_169_100">
<rect width="306.25" height="35" fill="white"/>
</clipPath>
</defs>
</svg>
