<svg width="18" height="18" viewBox="0 0 18 18" fill="none" xmlns="http://www.w3.org/2000/svg">
<g clip-path="url(#clip0_190_1731)">
<path d="M10.3444 0.608067C10.3444 0.273293 10.6706 0 11.0777 0C11.4845 0 11.8114 0.271871 11.8114 0.608067V3.26814C11.8114 3.60291 11.4845 3.87621 11.0777 3.87621C10.6706 3.87621 10.3444 3.60434 10.3444 3.26814V0.608067ZM12.4119 11.3248H13.0419C13.1569 11.3248 13.2514 11.4204 13.2514 11.5366V13.5566H14.9463C15.0623 13.5566 15.1569 13.6525 15.1569 13.7691V14.406C15.1569 14.5236 15.0623 14.6185 14.9463 14.6185H12.201V11.5366C12.201 11.4204 12.2959 11.3248 12.4119 11.3248ZM13.2827 8.46212C14.5828 8.46212 15.7634 8.99662 16.6166 9.86057C17.4713 10.722 18 11.9144 18 13.2314C18 14.5471 17.472 15.7408 16.6184 16.6033L16.5945 16.6261C15.7426 17.4747 14.573 18 13.2827 18C11.9798 18 10.8004 17.4655 9.94711 16.603L9.92461 16.5785C9.08437 15.717 8.56477 14.5339 8.56477 13.2314C8.56477 11.9144 9.09352 10.722 9.94711 9.8595C10.8004 8.99662 11.9809 8.46212 13.2827 8.46212ZM16.0509 10.4313C15.3446 9.71664 14.3648 9.27347 13.2827 9.27347C12.2017 9.27347 11.2222 9.71664 10.5142 10.4327C9.80578 11.1485 9.36738 12.1386 9.36738 13.2314C9.36738 14.3153 9.79805 15.2976 10.4931 16.0102L10.5142 16.0297C11.2222 16.7455 12.2017 17.189 13.2827 17.189C14.3543 17.189 15.326 16.7533 16.0323 16.0507L16.0513 16.0301C16.7597 15.314 17.1977 14.3242 17.1977 13.2314C17.1977 12.1386 16.759 11.1485 16.0509 10.4313ZM1.99687 8.61032C1.95574 8.61032 1.91848 8.42552 1.91848 8.19949C1.91848 7.9724 1.95082 7.78937 1.99687 7.78937H3.99867C4.04016 7.78937 4.07742 7.97417 4.07742 8.19949C4.07742 8.42623 4.04508 8.61032 3.99867 8.61032H1.99687ZM5.18801 8.61032C5.14688 8.61032 5.10961 8.42552 5.10961 8.19949C5.10961 7.9724 5.14195 7.78937 5.18801 7.78937H7.1898C7.23129 7.78937 7.26855 7.97417 7.26855 8.19949C7.26855 8.42623 7.23621 8.61032 7.1898 8.61032H5.18801ZM8.37914 8.61032C8.33836 8.61032 8.30109 8.42552 8.30109 8.19949C8.30109 7.9724 8.33344 7.78937 8.37914 7.78937H10.3809C10.4228 7.78937 10.46 7.9724 10.46 8.19771C10.2596 8.32388 10.0663 8.46212 9.88242 8.61032H8.37914ZM2.0018 10.9644C1.96031 10.9644 1.92305 10.7796 1.92305 10.5532C1.92305 10.3265 1.95574 10.1417 2.0018 10.1417H4.00359C4.04508 10.1417 4.08164 10.3265 4.08164 10.5532C4.08164 10.7796 4.04965 10.9644 4.00359 10.9644H2.0018ZM5.19293 10.9644C5.15145 10.9644 5.11418 10.7796 5.11418 10.5532C5.11418 10.3265 5.14688 10.1417 5.19293 10.1417H7.19473C7.23621 10.1417 7.27313 10.3265 7.27313 10.5532C7.27313 10.7796 7.24078 10.9644 7.19473 10.9644H5.19293ZM2.00602 13.3199C1.96453 13.3199 1.92727 13.1351 1.92727 12.9084C1.92727 12.682 1.96031 12.4972 2.00602 12.4972H4.00781C4.04965 12.4972 4.08656 12.682 4.08656 12.9084C4.08656 13.1351 4.05387 13.3199 4.00781 13.3199H2.00602ZM5.1975 13.3199C5.15566 13.3199 5.1184 13.1351 5.1184 12.9084C5.1184 12.682 5.15145 12.4972 5.1975 12.4972H7.1993C7.24078 12.4972 7.27805 12.682 7.27805 12.9084C7.27805 13.1351 7.245 13.3199 7.1993 13.3199H5.1975ZM3.75574 0.608067C3.75574 0.273293 4.08164 0 4.4891 0C4.89586 0 5.22246 0.271871 5.22246 0.608067V3.26814C5.22246 3.60291 4.8941 3.87621 4.4891 3.87621C4.08164 3.87621 3.75574 3.60434 3.75574 3.26814V0.608067ZM0.807539 5.81555H14.7783V2.75283C14.7783 2.64834 14.7364 2.5563 14.6696 2.48878C14.6029 2.42125 14.5083 2.37932 14.4088 2.37932H13.0693C12.8447 2.37932 12.6619 2.19452 12.6619 1.96813C12.6619 1.7414 12.8447 1.5566 13.0693 1.5566H14.4088C14.7364 1.5566 15.0311 1.69058 15.2462 1.90807C15.4614 2.12593 15.5936 2.42303 15.5936 2.75461V7.61666C15.326 7.52354 15.0518 7.44856 14.7695 7.39312V6.6333H14.7783H0.807539V14.5645C0.807539 14.669 0.849023 14.7606 0.91582 14.8282C0.982969 14.8957 1.07789 14.938 1.17738 14.938H7.81664C7.89258 15.2226 7.9875 15.5006 8.10176 15.7678H1.18512C0.858164 15.7678 0.562852 15.6345 0.346992 15.4163C0.131836 15.2006 0 14.9035 0 14.5716V2.75603C0 2.42587 0.131836 2.12699 0.346992 1.90949C0.562852 1.69164 0.856758 1.55837 1.18512 1.55837H2.61492C2.83922 1.55837 3.02168 1.74317 3.02168 1.9692C3.02168 2.19629 2.83922 2.38109 2.61492 2.38109H1.18512C1.08105 2.38109 0.990352 2.42303 0.923555 2.49055C0.856758 2.55808 0.814922 2.65368 0.814922 2.75461V5.81662H0.807539V5.81555ZM6.39563 2.37932C6.17098 2.37932 5.98887 2.19452 5.98887 1.96813C5.98887 1.7414 6.17098 1.5566 6.39563 1.5566H9.12199C9.34664 1.5566 9.52875 1.7414 9.52875 1.96813C9.52875 2.19452 9.34664 2.37932 9.12199 2.37932H6.39563Z" fill="url(#paint0_angular_190_1731)"/>
</g>
<defs>
<radialGradient id="paint0_angular_190_1731" cx="0" cy="0" r="1" gradientUnits="userSpaceOnUse" gradientTransform="translate(5.74825 4.65169) rotate(68.5355) scale(5.1885 4.31581)">
<stop offset="0.0416667" stop-color="#0085FF"/>
<stop offset="0.114535" stop-color="#74BCF7"/>
<stop offset="0.223958" stop-color="#5BB6FF"/>
<stop offset="0.34375" stop-color="#74C1FF"/>
<stop offset="0.520833" stop-color="#238CEC"/>
<stop offset="0.635417" stop-color="#60BCFF"/>
<stop offset="0.730907" stop-color="#3195EA"/>
<stop offset="0.802083" stop-color="#218EF2"/>
<stop offset="0.891089" stop-color="#96CDFF"/>
<stop offset="1" stop-color="#0A91FF"/>
</radialGradient>
<clipPath id="clip0_190_1731">
<rect width="18" height="18" fill="white"/>
</clipPath>
</defs>
</svg>
