<svg width="1572" height="1060" viewBox="0 0 1572 1060" fill="none" xmlns="http://www.w3.org/2000/svg">
<g opacity="0.08">
<path d="M1464.27 -1H991.916L1108.54 206.151H1456.69C1525.23 206.151 1590.95 228.949 1639.41 269.528C1687.87 310.108 1715.09 365.146 1715.09 422.534C1715.09 479.923 1687.87 534.961 1639.41 575.541C1590.95 616.12 1525.23 638.918 1456.69 638.918H1217.24L859.27 -1H593.978L0 1060H261.502L726.624 229.088L955.912 638.341H629.982L513.701 846.213H1464.27C1530.69 846.213 1596.46 835.258 1657.83 813.974C1719.19 792.689 1774.95 761.492 1821.91 722.163C1868.88 682.834 1906.13 636.144 1931.55 584.758C1956.97 533.373 1970.05 478.298 1970.05 422.679C1970.07 367.047 1957.01 311.957 1931.6 260.555C1906.19 209.153 1868.94 162.445 1821.97 123.101C1775 83.7573 1719.24 52.5471 1657.87 31.2534C1596.49 9.95982 1530.71 -1 1464.27 -1Z" fill="black"/>
<path d="M1134.04 956.713L1191.92 1060H1453.25L1395.54 956.713H1134.04Z" fill="black"/>
<path d="M859.27 -1L261.502 1060H0L593.978 -1H859.27Z" fill="black"/>
<path d="M955.74 638.341L1072.19 846.213H513.702L629.983 638.341H955.74Z" fill="black"/>
<path d="M859.27 -1L726.624 229.088L1072.19 846.213H1333.69L859.27 -1Z" fill="black"/>
</g>
</svg>
