<svg width="375" height="990" viewBox="0 0 375 990" fill="none" xmlns="http://www.w3.org/2000/svg">
<g opacity="0.08">
<path d="M701.567 0H260.819L369.639 193.289H694.494C758.44 193.289 819.768 214.561 864.984 252.425C910.201 290.289 935.604 341.644 935.604 395.192C935.604 448.741 910.201 500.095 864.984 537.96C819.768 575.824 758.44 597.096 694.494 597.096H471.066L137.049 0H-110.49L-664.72 990H-420.717L13.2797 214.691L227.224 596.557H-76.8953L-185.395 790.519H701.567C763.542 790.519 824.91 780.297 882.167 760.437C939.425 740.577 991.45 711.467 1035.27 674.77C1079.1 638.073 1113.86 594.508 1137.57 546.561C1161.29 498.614 1173.5 447.224 1173.5 395.327C1173.52 343.418 1161.33 292.015 1137.62 244.052C1113.91 196.09 1079.15 152.508 1035.33 115.797C991.505 79.0855 939.472 49.9638 882.204 30.0951C824.936 10.2264 763.555 -3.01091e-06 701.567 0Z" fill="black"/>
<path d="M137.049 0L-420.717 990H-664.72L-110.49 0H137.049Z" fill="black"/>
<path d="M227.064 596.557L335.724 790.519H-185.394L-76.8948 596.557H227.064Z" fill="black"/>
<path d="M137.049 0L13.2798 214.691L335.724 790.519H579.726L137.049 0Z" fill="black"/>
</g>
</svg>
