<svg width="307" height="35" viewBox="0 0 307 35" fill="none" xmlns="http://www.w3.org/2000/svg">
<g clip-path="url(#clip0_116_87)">
<path d="M40.809 0H27.6445L30.8948 6.7974H40.5978C42.5077 6.7974 44.3395 7.54547 45.6901 8.87705C47.0406 10.2086 47.7994 12.0146 47.7994 13.8978C47.7994 15.7809 47.0406 17.5869 45.6901 18.9185C44.3395 20.25 42.5077 20.9981 40.5978 20.9981H33.9243L23.9477 0H16.5541L0 34.8154H7.28801L20.2509 7.55004L26.6411 20.9792H17.5575L14.3168 27.8002H40.809C42.6601 27.8002 44.4931 27.4408 46.2033 26.7423C47.9135 26.0439 49.4674 25.0202 50.7763 23.7297C52.0853 22.4392 53.1236 20.9071 53.8319 19.2209C54.5403 17.5348 54.9049 15.7276 54.9049 13.9025C54.9056 12.077 54.5414 10.2693 53.8333 8.58259C53.1252 6.89589 52.087 5.36326 50.778 4.07223C49.469 2.7812 47.9149 1.75708 46.2044 1.05836C44.4939 0.359633 42.6605 -1.05885e-07 40.809 0Z" fill="#FDFDFC"/>
<path d="M31.6055 31.426L33.2186 34.8153H40.5018L38.8935 31.426H31.6055Z" fill="#FDFDFC"/>
<path d="M23.9477 0L7.28801 34.8154H0L16.5541 0H23.9477Z" fill="#FDFDFC"/>
<path d="M26.6364 20.9792L29.8819 27.8003H14.3169L17.5576 20.9792H26.6364Z" fill="#FDFDFC"/>
<path d="M23.9478 0L20.251 7.55004L29.8819 27.8002H37.1699L23.9478 0Z" fill="#FDFDFC"/>
<path d="M78.0555 17.6893H67.9733L65.8272 22.2004H61.9863V21.727L72.1886 0.265015H73.8882L84.052 21.7317V22.2051H80.2352L78.0555 17.6893ZM73.0384 5.92636L69.1591 14.6361H76.8888L73.0384 5.92636Z" fill="white"/>
<path d="M86.8989 0.473389H94.8831C98.1798 0.473389 100.8 1.51793 102.742 3.60701C104.684 5.69676 105.731 8.44663 105.661 11.2801C105.735 14.1245 104.705 16.8893 102.781 19.01C100.86 21.137 98.2294 22.2005 94.8879 22.2005H86.8989V0.473389ZM90.5621 18.9343H94.8207C95.8112 18.982 96.7999 18.8098 97.714 18.4305C98.628 18.0512 99.444 17.4744 100.102 16.7427C101.401 15.2406 102.086 13.3149 102.022 11.3417C102.085 9.37 101.401 7.44598 100.102 5.94539C99.4527 5.21808 98.6465 4.64331 97.7427 4.26324C96.8388 3.88318 95.86 3.70747 94.8783 3.74902H90.5861L90.5621 18.9343Z" fill="white"/>
<path d="M122.048 14.0491L127.665 21.6701V22.2003H123.94L118.452 14.6266H113.589V22.2003H109.896V0.421143H119.018C121.352 0.421143 123.213 1.09962 124.602 2.45658C125.283 3.11314 125.819 3.90082 126.177 4.77056C126.536 5.6403 126.709 6.57349 126.686 7.51203C126.701 8.94256 126.263 10.3421 125.431 11.5143C124.599 12.6866 123.416 13.573 122.048 14.0491ZM113.526 11.6208H118.985C119.533 11.64 120.079 11.5477 120.59 11.3496C121.1 11.1516 121.563 10.8521 121.951 10.4697C122.339 10.0874 122.643 9.6304 122.844 9.12724C123.044 8.62409 123.138 8.08554 123.119 7.54516C123.132 7.01818 123.035 6.49411 122.835 6.00551C122.634 5.51691 122.334 5.07424 121.952 4.70502C121.56 4.32867 121.096 4.03409 120.586 3.83889C120.076 3.64369 119.532 3.55188 118.985 3.56896H113.526V11.6208Z" fill="white"/>
<path d="M139.37 0.473389H147.354C150.657 0.473389 153.281 1.52582 155.228 3.63068C157.17 5.72043 158.216 8.47029 158.147 11.3038C158.22 14.1482 157.19 16.913 155.266 19.0337C153.326 21.1607 150.695 22.2241 147.373 22.2241H139.37V0.473389ZM143.033 18.9343H147.291C148.278 18.9784 149.262 18.8045 150.172 18.4253C151.081 18.0461 151.893 17.4712 152.549 16.7427C153.848 15.2406 154.533 13.3149 154.469 11.3417C154.532 9.36999 153.847 7.44598 152.549 5.94539C151.899 5.21861 151.093 4.6442 150.189 4.26419C149.285 3.88417 148.307 3.70815 147.325 3.74902H143.033V18.9343Z" fill="#2175C9"/>
<path d="M168.373 10.2812H168.517L171.264 5.11684L174.144 0.421143H178.057V0.946569L170.265 13.3627V22.2003H166.597V13.3627L158.81 0.946569V0.421143H162.756L165.723 5.27305L168.373 10.2812Z" fill="#2175C9"/>
<path d="M198.005 22.2477L184.5 7.38906L184.749 14.2953V22.2004H181.12V0.35498H182.44L195.849 15.029L195.595 8.37364V0.42125H199.258V22.2477H198.005Z" fill="#2175C9"/>
<path d="M218.141 17.6893H208.059L205.913 22.2004H202.072V21.727L212.269 0.265015H213.974L224.133 21.7317V22.2051H220.316L218.141 17.6893ZM213.119 5.92636L209.24 14.6361H216.969L213.119 5.92636Z" fill="#2175C9"/>
<path d="M237.292 11.6209L246.256 0.35498H247.615V22.2004H243.923V8.57245L237.547 16.6195H237.067L230.657 8.57245V22.2004H226.965V0.35498H228.324L237.292 11.6209Z" fill="#2175C9"/>
<path d="M258.777 19.2749H262.277V22.2003H251.623V19.2749H255.123V3.31335H251.906V0.421143H261.989V3.31335H258.777V19.2749Z" fill="#2175C9"/>
<path d="M264.653 11.3605C264.653 7.95549 265.743 5.24316 267.923 3.2235C270.063 1.20618 272.928 0.108177 275.888 0.17035C277.339 0.163212 278.779 0.426601 280.132 0.946655C281.5 1.48735 282.725 2.32927 283.714 3.40811C284.778 4.54548 285.518 5.9401 285.86 7.45058H282.326C281.257 4.83765 279.101 3.51067 275.859 3.46965C274.844 3.4315 273.832 3.60917 272.893 3.9906C271.953 4.37202 271.108 4.94827 270.415 5.68022C269.035 7.14132 268.345 9.03474 268.345 11.3605C268.288 13.4052 269.041 15.3916 270.443 16.8988C271.13 17.6337 271.969 18.2141 272.904 18.6004C273.838 18.9868 274.846 19.1701 275.859 19.1378C277.306 19.1604 278.728 18.7602 279.945 17.9875C281.126 17.2255 282.001 16.0827 282.422 14.7545H285.989C285.793 15.8956 285.37 16.9873 284.744 17.9669C284.119 18.9466 283.304 19.7948 282.345 20.4632C280.161 21.897 277.555 22.5717 274.938 22.3805C272.322 22.1893 269.844 21.1431 267.899 19.4076C265.738 17.4132 264.657 14.7308 264.653 11.3605Z" fill="#2175C9"/>
<path d="M288.606 16.0089H292.206C292.233 16.7476 292.556 17.4456 293.104 17.9496C293.652 18.4739 294.323 18.8547 295.058 19.0573C295.84 19.2694 296.648 19.3745 297.459 19.3697C298.711 19.4053 299.952 19.1371 301.074 18.5887C301.557 18.3469 301.957 17.9699 302.223 17.5051C302.489 17.0403 302.611 16.5083 302.572 15.9758C302.584 15.479 302.46 14.9884 302.212 14.5557C302.006 14.1889 301.726 13.8669 301.391 13.609C300.98 13.3451 300.525 13.1559 300.047 13.0504C299.573 12.919 299.092 12.8147 298.606 12.738C298.237 12.6859 297.708 12.6291 297.012 12.5676C291.661 12.1226 288.985 10.1424 288.985 6.62696C288.94 5.67987 289.136 4.73669 289.555 3.88343C289.974 3.03016 290.604 2.29395 291.385 1.74192C293.112 0.552284 295.181 -0.0584298 297.286 -3.76338e-05C299.345 -0.0638827 301.376 0.488993 303.11 1.58571C304.694 2.64603 305.509 4.22388 305.553 6.31927H302.082C302.069 5.97495 301.986 5.63667 301.84 5.3239C301.693 5.01114 301.485 4.73006 301.228 4.49685C300.728 4.02303 300.116 3.68113 299.446 3.5028C298.73 3.31778 297.993 3.22862 297.252 3.23772C296.129 3.21965 295.019 3.4922 294.036 4.02823C293.581 4.26244 293.204 4.61997 292.949 5.05863C292.694 5.49728 292.571 5.99876 292.595 6.50388C292.585 6.93948 292.694 7.36972 292.912 7.74881C293.087 8.06014 293.322 8.33502 293.604 8.55825C293.968 8.792 294.368 8.96474 294.789 9.06948C295.22 9.20003 295.658 9.30904 296.1 9.39609C296.436 9.45763 296.95 9.53337 297.646 9.61384C298.699 9.74007 299.582 9.86472 300.296 9.98779C301.077 10.1287 301.842 10.3427 302.582 10.6268C303.295 10.8693 303.955 11.2437 304.526 11.7297C305.045 12.2188 305.458 12.8065 305.741 13.4575C306.081 14.2603 306.244 15.125 306.221 15.9947C306.241 17.0564 305.972 18.104 305.443 19.0289C304.967 19.8851 304.272 20.6033 303.427 21.1117C302.565 21.6206 301.634 22.0033 300.661 22.2477C299.639 22.5019 298.589 22.6276 297.536 22.6217C296.111 22.6643 294.69 22.4477 293.344 21.9826C292.042 21.5448 290.882 20.7718 289.984 19.7437C289.083 18.7029 288.594 17.3768 288.606 16.0089Z" fill="#2175C9"/>
<path d="M62.8599 29.3196H63.4648V34.9525H62.8599V29.3196Z" fill="#111111"/>
<path d="M71.977 29.3196V34.9525H71.4969L67.8241 30.3799V34.9525H67.2144V29.3196H67.6945L71.3769 33.8875V29.3196H71.977Z" fill="#111111"/>
<path d="M80.4894 29.3196V34.9525H80.0093L76.3365 30.3799V34.9525H75.7363V29.3196H76.2164L79.8988 33.8875V29.3196H80.4894Z" fill="#111111"/>
<path d="M83.7207 32.1361C83.6967 31.5467 83.852 30.9637 84.1667 30.462C84.4813 29.9603 84.9408 29.5628 85.4863 29.3205C86.0318 29.0781 86.6383 29.0021 87.2279 29.1022C87.8175 29.2023 88.3633 29.4738 88.7952 29.882C89.2272 30.2901 89.5255 30.8163 89.6519 31.3928C89.7783 31.9694 89.7269 32.57 89.5045 33.1176C89.2821 33.6652 88.8988 34.1348 88.4037 34.466C87.9086 34.7971 87.3244 34.9749 86.7261 34.9763C86.3375 34.9929 85.9494 34.9317 85.5854 34.7965C85.2214 34.6612 84.8889 34.4546 84.608 34.1892C84.3272 33.9238 84.1038 33.6051 83.9512 33.2522C83.7987 32.8994 83.7203 32.5197 83.7207 32.1361ZM89.117 32.1361C89.1237 31.6667 88.9886 31.2059 88.7289 30.8123C88.4692 30.4188 88.0967 30.1103 87.6587 29.926C87.2207 29.7418 86.737 29.6902 86.2691 29.7777C85.8013 29.8653 85.3704 30.088 85.0313 30.4177C84.6922 30.7473 84.4603 31.169 84.3649 31.6289C84.2695 32.0889 84.315 32.5665 84.4957 33.0009C84.6763 33.4353 84.984 33.8069 85.3794 34.0685C85.7749 34.3301 86.2403 34.4697 86.7165 34.4698C87.0321 34.4815 87.3468 34.4294 87.6412 34.3167C87.9356 34.204 88.2035 34.0331 88.4283 33.8145C88.6532 33.5959 88.8303 33.3342 88.9488 33.0455C89.0672 32.7569 89.1245 32.4474 89.117 32.1361Z" fill="#111111"/>
<path d="M97.5335 29.3196L95.0033 34.9525H94.4032L91.873 29.3196H92.526L94.7153 34.2094L96.919 29.3196H97.5335Z" fill="#111111"/>
<path d="M103.645 33.4473H100.462L99.7754 34.9525H99.1465L101.782 29.3196H102.378L104.989 34.9525H104.356L103.645 33.4473ZM103.424 32.9739L102.051 29.9491L100.683 32.9739H103.424Z" fill="#111111"/>
<path d="M108.614 29.8213H106.607V29.3196H111.226V29.8213H109.219V34.9525H108.614V29.8213Z" fill="#111111"/>
<path d="M114.068 29.3196H114.673V34.9525H114.068V29.3196Z" fill="#111111"/>
<path d="M117.904 32.1361C117.88 31.5465 118.035 30.9634 118.35 30.4615C118.665 29.9597 119.125 29.5621 119.671 29.32C120.216 29.0778 120.823 29.0021 121.413 29.1025C122.003 29.2029 122.548 29.475 122.98 29.8836C123.412 30.2922 123.71 30.8188 123.836 31.3957C123.961 31.9726 123.909 32.5734 123.686 33.1209C123.463 33.6684 123.079 34.1377 122.583 34.4683C122.088 34.7989 121.503 34.9758 120.904 34.9763C120.516 34.9923 120.129 34.9306 119.765 34.795C119.402 34.6595 119.07 34.4528 118.789 34.1875C118.509 33.9221 118.286 33.6036 118.134 33.2511C117.982 32.8985 117.903 32.5193 117.904 32.1361ZM123.295 32.1361C123.302 31.6667 123.167 31.2059 122.907 30.8123C122.648 30.4188 122.275 30.1103 121.837 29.926C121.399 29.7418 120.915 29.6902 120.447 29.7777C119.98 29.8653 119.549 30.088 119.21 30.4177C118.871 30.7473 118.639 31.169 118.543 31.6289C118.448 32.0889 118.493 32.5665 118.674 33.0009C118.855 33.4353 119.162 33.8069 119.558 34.0685C119.953 34.3301 120.419 34.4697 120.895 34.4698C121.21 34.4815 121.525 34.4294 121.819 34.3167C122.114 34.204 122.382 34.0331 122.607 33.8145C122.832 33.5959 123.009 33.3342 123.127 33.0456C123.246 32.7569 123.303 32.4474 123.295 32.1361Z" fill="#111111"/>
<path d="M131.909 29.3196V34.9525H131.429L127.756 30.3799V34.9525H127.132V29.3196H127.612L131.294 33.8875V29.3196H131.909Z" fill="#111111"/>
<path d="M139.663 29.3196H140.268V34.9525H139.663V29.3196Z" fill="#111111"/>
<path d="M148.78 29.3196V34.9525H148.3L144.627 30.3799V34.9525H144.022V29.3196H144.502L148.184 33.8875V29.3196H148.78Z" fill="#111111"/>
<path d="M151.972 34.2662L152.207 33.7928C152.73 34.255 153.411 34.5052 154.113 34.4934C155.184 34.4934 155.65 34.0485 155.65 33.4946C155.65 31.9515 152.131 32.8982 152.131 30.8154C152.131 29.9871 152.784 29.2723 154.238 29.2723C154.863 29.2585 155.478 29.4228 156.01 29.7456L155.803 30.219C155.337 29.9187 154.795 29.7546 154.238 29.7456C153.192 29.7456 152.731 30.219 152.731 30.7681C152.731 32.3112 156.245 31.3787 156.245 33.4284C156.245 34.2567 155.578 34.9668 154.113 34.9668C153.336 35.0084 152.57 34.7581 151.972 34.2662Z" fill="#111111"/>
<path d="M163.884 31.2414C163.884 32.439 163.005 33.1632 161.551 33.1632H160.019V34.9431H159.395V29.3196H161.531C163.005 29.3196 163.884 30.0438 163.884 31.2414ZM163.284 31.2414C163.284 30.3373 162.679 29.8213 161.536 29.8213H160.019V32.6615H161.536C162.679 32.6615 163.284 32.1361 163.284 31.2414Z" fill="#111111"/>
<path d="M167.077 29.3196H167.682V34.9525H167.077V29.3196Z" fill="#111111"/>
<path d="M175.31 34.9525L174.004 33.1348C173.853 33.1448 173.7 33.1448 173.548 33.1348H172.017V34.9241H171.397V29.3196H173.534C174.974 29.3196 175.867 30.0438 175.867 31.2509C175.888 31.6487 175.769 32.0414 175.532 32.3636C175.294 32.6857 174.952 32.9178 174.561 33.0212L175.958 34.9525H175.31ZM175.282 31.2414C175.282 30.3373 174.677 29.8213 173.534 29.8213H172.017V32.6615H173.534C174.677 32.6615 175.282 32.1361 175.282 31.2414Z" fill="#111111"/>
<path d="M183.228 34.4366V34.9525H179.19V29.3196H183.108V29.8213H179.795V31.8236H182.748V32.3301H179.795V34.4224L183.228 34.4366Z" fill="#111111"/>
<path d="M186.526 29.3196H188.854C190.679 29.3196 191.913 30.4793 191.913 32.1597C191.913 33.8401 190.679 34.9999 188.854 34.9999H186.526V29.3196ZM188.821 34.4366C190.338 34.4366 191.317 33.4899 191.317 32.1361C191.317 30.7823 190.357 29.8355 188.821 29.8355H187.131V34.4366H188.821Z" fill="#111111"/>
<path d="M203.934 33.4473C203.934 34.394 203.219 34.9525 201.788 34.9525H199.162V29.3196H201.644C202.917 29.3196 203.651 29.8497 203.651 30.7681C203.662 31.0449 203.583 31.3179 203.426 31.5477C203.269 31.7774 203.042 31.952 202.777 32.0461C203.112 32.0962 203.416 32.2674 203.63 32.5265C203.844 32.7855 203.953 33.1137 203.934 33.4473ZM199.767 29.8213V31.8662H201.587C202.499 31.8662 203.027 31.5207 203.027 30.8438C203.027 30.1669 202.494 29.8213 201.587 29.8213H199.767ZM203.329 33.4141C203.329 32.6804 202.787 32.3585 201.779 32.3585H199.767V34.4602H201.779C202.787 34.4602 203.329 34.1384 203.329 33.3999V33.4141Z" fill="#111111"/>
<path d="M209.028 33.0023V34.9525H208.433V33.0023L206.147 29.3196H206.791L208.75 32.4816L210.708 29.3196H211.313L209.028 33.0023Z" fill="#111111"/>
<path d="M218.75 29.8213V32.0461H221.703V32.5621H218.75V34.9289H218.146V29.3196H222.063V29.8213H218.75Z" fill="#111111"/>
<path d="M228.501 33.4473H225.318L224.631 34.9525H224.007L226.61 29.3196H227.205L229.817 34.9525H229.178L228.501 33.4473ZM228.28 32.9739L226.912 29.9491L225.539 32.9739H228.28Z" fill="#111111"/>
<path d="M238.584 29.3196V34.9525H238.003V30.4462L235.761 34.233H235.473L233.231 30.4698V34.9525H232.65V29.3196H233.13L235.607 33.4946L238.065 29.3196H238.584Z" fill="#111111"/>
<path d="M242.319 29.3196H242.933V34.9525H242.328L242.319 29.3196Z" fill="#111111"/>
<path d="M246.664 29.3196H247.254V34.4366H250.452V34.9525H246.649L246.664 29.3196Z" fill="#111111"/>
<path d="M254.701 33.0023V34.9525H254.106V33.0023L251.82 29.3196H252.464L254.422 32.4816L256.377 29.3196H256.981L254.701 33.0023Z" fill="#111111"/>
<path d="M268.571 29.3196L266.041 34.9525H265.441L262.911 29.3196H263.578L265.767 34.2094L267.971 29.3196H268.571Z" fill="#111111"/>
<path d="M274.683 33.4473H271.5L270.813 34.9525H270.184L272.796 29.3196H273.391L276.003 34.9525H275.369L274.683 33.4473ZM274.462 32.9739L273.089 29.9491L271.74 32.9644L274.462 32.9739Z" fill="#111111"/>
<path d="M278.831 29.3196H279.421V34.4366H282.624V34.9525H278.821L278.831 29.3196Z" fill="#111111"/>
<path d="M285.36 32.5431V29.3196H285.96V32.5195C285.96 33.8591 286.599 34.4697 287.708 34.4697C288.817 34.4697 289.465 33.8591 289.465 32.5195V29.3196H290.051V32.5431C290.051 34.162 289.168 34.9999 287.708 34.9999C286.249 34.9999 285.36 34.162 285.36 32.5431Z" fill="#111111"/>
<path d="M297.786 34.4366V34.9525H293.748V29.3196H297.666V29.8213H294.353V31.8236H297.306V32.3301H294.353V34.4224L297.786 34.4366Z" fill="#111111"/>
<path d="M300.546 34.2662L300.786 33.7929C301.305 34.2443 301.976 34.489 302.668 34.4793C303.739 34.4793 304.205 34.0343 304.205 33.4805C304.205 31.9373 300.686 32.884 300.686 30.8013C300.686 29.9729 301.339 29.2581 302.793 29.2581C303.418 29.2443 304.033 29.4087 304.565 29.7315L304.358 30.2048C303.893 29.9045 303.35 29.7404 302.793 29.7315C301.747 29.7315 301.281 30.2048 301.281 30.7539C301.281 32.2971 304.8 31.3646 304.8 33.4142C304.8 34.2426 304.133 34.9526 302.668 34.9526C301.899 34.9916 301.143 34.7469 300.546 34.2662Z" fill="#111111"/>
</g>
<defs>
<clipPath id="clip0_116_87">
<rect width="306.25" height="35" fill="white"/>
</clipPath>
</defs>
</svg>
